<?xml version="1.0" encoding="utf-8"?>

<!DOCTYPE svg PUBLIC "-//W3C//DTD SVG 1.1//EN" "http://www.w3.org/Graphics/SVG/1.1/DTD/svg11.dtd">
<svg version="1.1" id="Food_Icons" xmlns="http://www.w3.org/2000/svg" xmlns:xlink="http://www.w3.org/1999/xlink" x="0px" y="0px"
	 width="53.529px" height="105.583px" viewBox="0 0 53.529 105.583" enable-background="new 0 0 53.529 105.583"
	 xml:space="preserve">
<g id="_x31_0">
	<g>
		<circle fill="#D66C53" cx="26.773" cy="24.302" r="22.302"/>
	</g>
	<g>
		<path fill="#E9785A" d="M26.773,46.605c12.317,0,12.317-44.605,0-44.605S14.456,46.605,26.773,46.605z"/>
	</g>
	<g>
		<path d="M2.471,24.302C2.471,10.901,13.373,0,26.774,0s24.303,10.901,24.303,24.302S40.174,48.604,26.774,48.604
			S2.471,37.702,2.471,24.302z M6.471,24.302c0,11.195,9.107,20.303,20.303,20.303s20.303-9.107,20.303-20.303
			C47.076,13.107,37.969,4,26.774,4S6.471,13.107,6.471,24.302z"/>
	</g>
	<g>
		<path fill="#E9785A" d="M48.821,18.303H4.7c-0.889,0-1.678,0.568-1.959,1.411l0,0c-0.995,2.978-0.995,6.198,0,9.176l0,0
			c0.282,0.843,1.071,1.411,1.959,1.411h44.121c0.901,0,1.698-0.584,1.969-1.442l0.059-0.188c0.9-2.843,0.9-5.895,0-8.738
			l-0.059-0.188C50.519,18.887,49.722,18.303,48.821,18.303z"/>
	</g>
	<g>
		<path fill="#D66C53" d="M48.821,18.303H4.7c-0.889,0-1.678,0.284-1.959,0.706l0,0c-0.995,1.489-0.995,3.099,0,4.588l0,0
			c0.282,0.421,1.071,0.706,1.959,0.706h44.121c0.901,0,1.698-0.292,1.969-0.721l0.059-0.094c0.9-1.422,0.9-2.947,0-4.369
			l-0.059-0.094C50.519,18.595,49.722,18.303,48.821,18.303z"/>
	</g>
	<g>
		<path d="M0.843,29.523c-1.124-3.367-1.124-7.075,0.001-10.443C1.4,17.42,2.949,16.304,4.7,16.304h44.121
			c1.781,0,3.339,1.142,3.875,2.837l0.06,0.189c1.03,3.253,1.03,6.691,0,9.946l-0.059,0.185c-0.537,1.698-2.095,2.84-3.876,2.84H4.7
			C2.949,32.301,1.4,31.186,0.843,29.523z M4.638,20.349c-0.852,2.55-0.852,5.357,0.062,7.952l44.184-0.048l0.06-0.186
			c0.779-2.463,0.779-5.067,0-7.528l-0.061-0.19c-0.009-0.027-0.033-0.045-0.062-0.045L4.638,20.349z"/>
	</g>
	<g>
		<path fill="#EDEDED" d="M25.674,103.582h2.2c1.142,0,2.068-0.926,2.068-2.068V46.605h-6.336v54.909
			C23.605,102.656,24.531,103.582,25.674,103.582z"/>
		<path d="M27.873,105.583h-2.2c-2.243,0-4.068-1.825-4.068-4.068V44.605h10.336v56.909
			C31.942,103.758,30.116,105.583,27.873,105.583z M25.605,48.605v52.909l0.068,0.068h2.2l0.066-52.978H25.605z"/>
	</g>
</g>
</svg>
